<?xml version="1.0" standalone="no"?>
<!DOCTYPE svg PUBLIC "-//W3C//DTD SVG 20010904//EN"
 "http://www.w3.org/TR/2001/REC-SVG-20010904/DTD/svg10.dtd">
<svg version="1.0" xmlns="http://www.w3.org/2000/svg"
 width="512.000000pt" height="512.000000pt" viewBox="0 0 512.000000 512.000000"
 preserveAspectRatio="xMidYMid meet">

<g transform="translate(0.000000,512.000000) scale(0.100000,-0.100000)"
fill="#000000" stroke="none">
<path d="M1409 4916 c-91 -24 -171 -46 -178 -50 -6 -4 -29 -43 -51 -87 l-40
-79 -318 -159 c-179 -90 -345 -179 -381 -207 -117 -88 -212 -227 -257 -379
-16 -54 -18 -120 -21 -703 l-4 -642 25 -25 25 -25 296 0 295 0 0 -775 0 -776
25 -24 24 -25 936 0 935 0 0 -375 0 -376 25 -24 24 -25 431 0 431 0 23 23 c24
24 17 -26 133 944 26 222 50 403 53 403 3 0 27 -181 53 -403 116 -970 109
-920 133 -944 l23 -23 431 0 431 0 24 25 25 24 0 1341 0 1341 -40 159 -40 159
0 251 0 251 -25 24 -24 25 -494 0 -494 0 -6 64 c-13 139 -67 276 -150 385 -83
107 -149 151 -499 327 l-328 164 -40 80 c-25 49 -49 84 -63 90 -12 5 -95 28
-184 50 l-162 40 -418 -1 -418 -1 -166 -42z m911 -196 l0 -80 -320 0 -320 0 0
80 0 80 320 0 320 0 0 -80z m-597 -512 l197 -236 0 -81 0 -81 -240 120 -240
120 0 150 c0 147 -1 152 -25 175 -23 24 -31 25 -135 25 l-110 0 81 163 c45 89
83 164 84 165 2 2 43 14 92 26 l88 22 5 -165 5 -166 198 -237z m942 520 c1 -1
39 -76 84 -165 l81 -163 -110 0 c-104 0 -112 -1 -135 -25 -24 -23 -25 -28 -25
-175 l0 -150 -240 -120 -240 -120 0 81 0 81 200 240 200 240 0 163 0 163 91
-23 c50 -13 92 -25 94 -27z m-375 -252 c0 -10 -283 -341 -291 -341 -8 0 -289
332 -289 341 0 2 131 4 290 4 160 0 290 -2 290 -4z m-1300 -76 c-36 -72 -38
-103 -5 -135 23 -24 29 -25 160 -25 l135 0 0 -131 c0 -72 5 -139 10 -150 7
-11 138 -83 320 -174 l310 -155 0 -1255 0 -1255 -480 0 -480 0 0 600 0 600
295 0 296 0 24 25 25 24 0 431 0 431 -25 24 -24 25 -296 0 -295 0 0 135 c0
131 -1 137 -25 160 -15 16 -36 25 -55 25 -19 0 -40 -9 -55 -25 l-25 -24 0
-256 0 -255 -240 0 -240 0 0 393 c0 360 2 400 20 471 26 102 69 176 149 257
60 60 87 76 296 182 127 64 231 116 233 117 1 0 -11 -27 -28 -60z m2521 -239
c36 -36 80 -91 97 -122 34 -60 72 -190 72 -246 l0 -33 -415 0 -416 0 -24 -25
-25 -24 0 -251 0 -251 -40 -159 -40 -159 0 -886 0 -885 -320 0 -320 0 0 1255
0 1255 310 155 c182 91 313 163 320 174 5 11 10 78 10 150 l0 131 135 0 c131
0 137 1 160 25 33 32 31 63 -5 136 l-31 60 233 -117 c213 -107 239 -123 299
-183z m-391 -721 l0 -160 -80 0 -80 0 0 160 0 160 80 0 80 0 0 -160z m320 0
l0 -160 -80 0 -80 0 0 160 0 160 80 0 80 0 0 -160z m320 0 l0 -160 -80 0 -80
0 0 160 0 160 80 0 80 0 0 -160z m320 0 l0 -160 -80 0 -80 0 0 160 0 160 80 0
80 0 0 -160z m320 0 l0 -160 -80 0 -80 0 0 160 0 160 80 0 80 0 0 -160z m320
0 l0 -160 -80 0 -80 0 0 160 0 160 80 0 80 0 0 -160z m-3280 -400 l0 -80 -240
0 -240 0 0 80 0 80 240 0 240 0 0 -80z m3329 -45 l31 -124 0 -1116 0 -1115
-345 0 c-247 0 -345 3 -345 11 0 6 -43 372 -96 813 -63 528 -101 809 -110 823
-27 42 -101 42 -128 0 -9 -14 -47 -295 -110 -823 -53 -441 -96 -807 -96 -813
0 -8 -98 -11 -345 -11 l-345 0 0 1115 0 1116 31 124 31 125 898 0 898 0 31
-125z m-3969 -195 l0 -80 -240 0 -240 0 0 80 0 80 240 0 240 0 0 -80z m640
-160 l0 -160 -240 0 -240 0 0 160 0 160 240 0 240 0 0 -160z m2106 -2187 c-3
-16 -8 -52 -11 -80 l-7 -53 -324 0 -324 0 0 80 0 80 336 0 336 0 -6 -27z
m1254 -53 l0 -80 -324 0 -324 0 -7 53 c-3 28 -8 64 -11 80 l-6 27 336 0 336 0
0 -80z"/>
</g>
</svg>
