<?xml version="1.0" standalone="no"?>
<!DOCTYPE svg PUBLIC "-//W3C//DTD SVG 20010904//EN"
 "http://www.w3.org/TR/2001/REC-SVG-20010904/DTD/svg10.dtd">
<svg version="1.0" xmlns="http://www.w3.org/2000/svg"
 width="512.000000pt" height="512.000000pt" viewBox="0 0 512.000000 512.000000"
 preserveAspectRatio="xMidYMid meet">

<g transform="translate(0.000000,512.000000) scale(0.100000,-0.100000)"
fill="#000000" stroke="none">
<path d="M2370 4734 c-84 -18 -137 -37 -235 -88 -173 -89 -307 -227 -395 -410
-59 -121 -78 -192 -87 -308 l-6 -88 -207 0 c-113 0 -233 -5 -266 -11 -133 -24
-277 -122 -354 -241 -71 -109 -72 -112 -175 -1150 -52 -526 -95 -984 -95
-1016 0 -89 26 -219 64 -328 123 -343 403 -597 766 -696 l85 -23 1095 0 1095
0 99 28 c396 110 690 413 786 808 41 169 40 188 -59 1184 -51 506 -98 956
-106 999 -34 191 -163 342 -353 414 -64 25 -79 26 -308 30 l-241 4 -6 86 c-9
116 -29 187 -87 308 -125 259 -357 442 -632 498 -95 20 -288 20 -378 0z m303
-359 c230 -48 404 -241 432 -477 l7 -58 -552 0 -552 0 7 58 c22 186 138 352
302 432 118 57 232 72 356 45z m1273 -941 c21 -16 45 -46 55 -65 13 -26 38
-249 109 -949 51 -503 92 -947 92 -987 -4 -256 -163 -504 -397 -619 -172 -84
-89 -79 -1245 -79 -1103 0 -1064 -2 -1195 52 -256 106 -444 376 -446 638 -1
89 178 1889 191 1931 10 31 58 82 95 102 14 8 395 11 1362 9 l1341 -2 38 -31z"/>
<path d="M1754 3091 c-23 -10 -54 -36 -70 -57 -26 -33 -29 -47 -33 -120 -11
-271 151 -577 394 -744 70 -48 199 -106 295 -131 118 -32 328 -32 445 0 98 26
228 87 309 145 232 166 386 466 375 730 -4 73 -7 87 -33 120 -57 76 -162 95
-242 46 -52 -33 -76 -80 -85 -174 -21 -210 -124 -373 -289 -461 -259 -135
-561 -56 -722 189 -47 73 -76 164 -87 272 -10 94 -33 141 -86 174 -49 30 -121
35 -171 11z"/>
</g>
</svg>
